<?xml version="1.0" encoding="utf-8"?>

<!-- Link to external css file -->
<?xml-stylesheet type="text/css" href="index.css"?>

<svg id="svgObj" width="300" height="300" viewBox="0 0 300 300" fill="none" xmlns="http://www.w3.org/2000/svg">
<rect id="BG" width="300" height="300" rx="30" fill="black"/>

<g id="handGrenade" clip-path="url(#clip0_6_192)">
<path d="M121.5 240L74.5 300.5H163L187.5 258.5L184 245L201 217L212.5 212.5L215 203.5L235 188L244 163.5L227 153L211.5 151.5L197 146.5L191.5 151.5V142L162 123.5L154 107L162 96.5L154 80L132.5 100.5V123.5L150 154L146 176L150 187L121.5 240Z" fill="white"/>
<path d="M170.5 155L169.5 128L192 142V152L197 146.5L208.5 151L205.5 157V162.5L203 164L201 158L198.5 161L197.5 167H196L194.5 161L193.5 164L192.5 185L193 188.5L190.5 190.5L189 186L190.5 184.5V161.5L189 158H185V180.5L186.5 190.5L185 193.5L183 195L181.5 193.5L179.5 188.5L181.5 181.5V151.5L178.5 153.5L175.5 151.5L174 148L173 156.5L174 161.5L173 165L169.5 166L168 161.5L170.5 155Z" fill="#C62326"/>
<path d="M244.5 80.5L240 65L244.5 54L259.5 55L258.5 70.5L244.5 80.5Z" fill="white"/>
<path d="M269.5 87.5L259.5 77L230 91.5L232.5 104L263 98L269.5 87.5Z" fill="white"/>
<path d="M267.5 110L261 102.5L248.5 108L241 126L247.5 132.5L264 122.5L267.5 110Z" fill="white"/>
<path d="M265 145L257 132.5L241 138L238 151L251.5 154.5L258.5 154L265 145Z" fill="white"/>
<path d="M188.5 38L177 27L174.5 15.5L183.5 8L193.5 6L202.5 15.5V26L188.5 38Z" fill="white"/>
<path d="M180.5 17.5V25.5L188 32L197.5 26.5L199.5 16L194.5 10H186L180.5 17.5Z" fill="black"/>
<path d="M159.5 47.5L157 34.5L172.5 27.5L181.5 37L178 38.5L184.5 44L181 54.5L168.5 51L167 43.5L159.5 47.5Z" fill="#C62326"/>
<path d="M143 69L147 60.5L163 56.5L179.5 60.5L186.5 67L167 73L158.5 81L154.5 75L152 77L143 69Z" fill="#C62326"/>
<path d="M150 79L141 71L138 86.5L140 89.5L150 79Z" fill="#C62326"/>
<path d="M186.5 56.5L194 41L210.5 32L220.5 37L221.5 48L203.5 52L189 65L186.5 56.5Z" fill="#C62326"/>
<path d="M232.5 42.5L224 38.5L224.5 48.5L237.5 51L232.5 42.5Z" fill="#C62326"/>
<path d="M223.5 76.5L221.5 52C204.3 53.6 194 64 191 69L202 87L223.5 76.5Z" fill="#C62326"/>
<path d="M198.5 89.5L188 70C172.4 71.6 162.833 80.3333 160 84.5L173.5 102.5L198.5 89.5Z" fill="#C62326"/>
<path d="M158.5 106.5L166 96.5L170.5 102.5L158.5 106.5Z" fill="#C62326"/>
<path d="M167 110L156.5 110.5L172 123.5L182.5 121.5L173.5 106.5L167 110Z" fill="#C62326"/>
<path d="M199.5 93.5L175.5 105.5L184 120L197 114L207 108L199.5 93.5Z" fill="#C62326"/>
<path d="M228 98L225.5 79.5C215.5 86.3 205.667 90 202 91L210.5 106.5C218.9 105.7 225.667 100.5 228 98Z" fill="#C62326"/>
<path d="M239 73L228 79.5L229.5 88.5L239.5 84L239 73Z" fill="#C62326"/>
<path d="M237.5 57.5L224 53L227 75.5L238.5 69L237.5 57.5Z" fill="#C62326"/>
<path d="M240.5 105.5L234 106.5L234.5 123L240.5 115.5V105.5Z" fill="#C62326"/>
<path d="M235.5 126.5L239.5 121.5L234.5 137.5L235.5 126.5Z" fill="#C62326"/>
<path d="M231.5 145L232 128L227.5 131.5L221 133L216.5 137.5L210 139L226.5 147.5L231.5 145Z" fill="#C62326"/>
<path d="M208 142L218.5 146.5L202 143L208 142Z" fill="#C62326"/>
<path d="M196 141L203 138.5L187 127L175.5 128L196 141Z" fill="#C62326"/>
<path d="M199.5 120L188.5 124.5L207.5 137.5C210.3 137.1 215.333 133.333 217.5 131.5L208 113L199.5 120Z" fill="#C62326"/>
<path d="M221 108.5L213 111L221.5 129L231 125L230 102.5L221 108.5Z" fill="#C62326"/>
<path d="M157.5 42.5L155.5 41L140 47L143.5 51L157.5 42.5Z" fill="white"/>
</g>
<defs>
<clipPath id="clip0_6_192">
<rect width="300" height="300" rx="30" fill="white"/>
</clipPath>
</defs>
</svg>
