<svg width="660" height="509" viewBox="0 0 660 509" fill="none" xmlns="http://www.w3.org/2000/svg">
<path fill-rule="evenodd" clip-rule="evenodd" d="M345.874 3.20683C386.598 16.4893 391.917 79.6345 430.888 97.4156C471.12 115.772 533.129 68.0853 561.821 101.737C589.984 134.768 529.636 187.66 543.035 228.948C558.436 276.402 624.096 293.49 639.458 340.957C656.169 392.594 679.4 476.484 631.249 501.528C569.149 533.827 500.469 451.043 430.485 449.646C397.952 448.997 378.414 495.739 345.874 495.83C313.343 495.922 293.564 450.189 261.033 450.122C194.233 449.985 129.69 521.733 68.3594 495.259C20.5077 474.603 34.1222 398.556 23.4077 347.549C12.8369 297.227 -10.665 245.068 5.55337 196.272C21.7403 147.572 68.9817 116.519 110.309 86.0918C145.852 59.923 187.543 46.2769 229.178 31.6273C267.424 18.1704 307.329 -9.36493 345.874 3.20683Z" fill="#68A937"/>
</svg>
