<svg width="431" height="729" viewBox="0 0 431 729" fill="none" xmlns="http://www.w3.org/2000/svg">
<path fill-rule="evenodd" clip-rule="evenodd" d="M227.219 10.6204C290.232 37.0538 304.225 119.601 337.354 179.366C355.661 212.393 366.818 246.955 378.181 282.967C387.292 311.84 390.21 340.75 397.545 370.125C407.463 409.838 437.576 446.615 429.047 486.65C420.169 528.324 379.223 553.147 351.636 585.62C310.743 633.756 284.668 750.47 227.219 724.223C153.262 690.435 207.056 557.909 154.738 495.665C126.748 462.364 60.3648 513.532 26.8348 485.817C-4.04685 460.29 -2.10292 409.882 2.86093 370.125C7.58059 332.323 48.4938 307.716 53.7816 269.99C63.7921 198.568 6.59904 117.386 46.6879 57.4349C81.8435 4.86103 168.898 -13.8449 227.219 10.6204Z" fill="#68A937"/>
</svg>
